<?xml version="1.0" encoding="UTF-8"?>
<svg xmlns="http://www.w3.org/2000/svg" xmlns:xlink="http://www.w3.org/1999/xlink" width="250px" height="46px" viewBox="0 0 249 46" version="1.1">
<g id="surface1">
<path style=" stroke:none;fill-rule:nonzero;fill:rgb(0%,0%,0%);fill-opacity:1;" d="M 68.523438 27.015625 C 68.332031 26.507812 68.234375 25.8125 68.234375 24.921875 C 68.234375 24.03125 68.539062 21.386719 69.148438 16.992188 C 69.753906 12.613281 70.058594 9.09375 70.058594 6.4375 C 70.058594 5.8125 70.015625 4.957031 69.925781 3.875 C 71.496094 3.964844 72.480469 4.335938 72.882812 4.988281 C 73.089844 5.375 73.222656 5.738281 73.28125 6.078125 C 73.339844 6.421875 73.371094 6.964844 73.371094 7.707031 C 73.371094 8.433594 73.039062 11.203125 72.371094 16.011719 C 71.6875 20.824219 71.339844 24.253906 71.324219 26.300781 C 71.429688 26.273438 71.613281 26.257812 71.882812 26.257812 C 76.371094 26.257812 79.714844 25.945312 81.910156 25.320312 C 81.761719 26.523438 81.351562 27.460938 80.6875 28.128906 C 80.003906 28.796875 79.160156 29.128906 78.152344 29.128906 C 77.855469 29.128906 76.957031 29.0625 75.460938 28.929688 C 73.949219 28.796875 72.488281 28.730469 71.082031 28.730469 C 69.671875 28.730469 68.257812 28.863281 66.835938 29.128906 C 67.117188 28.210938 67.679688 27.503906 68.523438 27.015625 Z M 89 16.679688 C 88.410156 17.71875 87.949219 18.789062 87.621094 19.886719 C 87.296875 20.972656 87.132812 22.019531 87.132812 23.027344 C 87.132812 24.023438 87.355469 24.867188 87.800781 25.566406 C 88.246094 26.265625 88.882812 26.613281 89.710938 26.613281 C 90.882812 26.613281 91.972656 25.976562 92.980469 24.699219 C 94.003906 23.40625 94.789062 21.855469 95.335938 20.042969 C 95.886719 18.21875 96.160156 16.53125 96.160156 14.988281 C 96.160156 13.445312 96.101562 12.175781 95.980469 11.179688 C 96.472656 11.136719 96.78125 11.113281 96.917969 11.113281 C 98.679688 11.113281 99.5625 12.019531 99.5625 13.828125 C 99.5625 14.214844 99.308594 15.820312 98.804688 18.640625 C 98.316406 21.460938 98.070312 23.71875 98.070312 25.410156 C 98.070312 27.101562 98.390625 28.601562 99.027344 29.910156 C 97.722656 29.640625 96.773438 29.0625 96.183594 28.171875 C 95.589844 27.296875 95.292969 26.027344 95.292969 24.363281 C 95.292969 24.066406 95.335938 23.503906 95.425781 22.671875 C 94.863281 24.644531 93.878906 26.234375 92.46875 27.4375 C 91.046875 28.65625 89.660156 29.261719 88.3125 29.261719 C 86.949219 29.261719 85.851562 28.742188 85.019531 27.703125 C 84.191406 26.679688 83.777344 25.261719 83.777344 23.449219 C 83.777344 21.625 84.117188 19.84375 84.800781 18.105469 C 85.464844 16.367188 86.480469 14.871094 87.84375 13.605469 C 89.195312 12.332031 90.714844 11.691406 92.402344 11.691406 C 93.128906 11.691406 93.929688 11.839844 94.804688 12.136719 C 93.574219 12.449219 92.445312 13.019531 91.425781 13.851562 C 90.417969 14.683594 89.609375 15.625 89 16.679688 Z M 120.328125 7.214844 L 120.347656 7.59375 C 120.347656 8.382812 120.054688 10.964844 119.460938 15.34375 C 118.867188 19.710938 118.570312 23.363281 118.570312 26.300781 C 118.570312 27.609375 118.636719 28.625 118.769531 29.351562 C 118.265625 29.398438 117.992188 29.417969 117.949219 29.417969 C 117.015625 29.417969 116.316406 29.203125 115.859375 28.773438 C 115.414062 28.34375 115.191406 27.644531 115.191406 26.679688 C 115.191406 25.714844 115.539062 22.761719 116.238281 17.816406 C 116.917969 12.886719 117.257812 9.367188 117.257812 7.261719 C 117.257812 5.152344 117.117188 3.769531 116.835938 3.117188 C 117.503906 3.207031 118.117188 3.464844 118.683594 3.898438 C 119.261719 4.3125 119.691406 4.878906 119.972656 5.589844 C 121.558594 4.742188 123.320312 4.320312 125.261719 4.320312 C 127.191406 4.320312 128.710938 4.914062 129.820312 6.101562 C 130.933594 7.304688 131.488281 8.773438 131.488281 10.511719 C 131.488281 12.738281 130.679688 14.742188 129.066406 16.523438 C 127.449219 18.292969 125.269531 19.175781 122.527344 19.175781 C 121.90625 19.175781 121.335938 19.136719 120.816406 19.0625 L 120.726562 18.0625 C 122.121094 18.0625 123.335938 17.855469 124.375 17.4375 C 125.410156 17.023438 126.195312 16.472656 126.730469 15.789062 C 127.78125 14.453125 128.308594 12.894531 128.308594 11.113281 C 128.308594 9.820312 127.902344 8.746094 127.085938 7.882812 C 126.269531 7.023438 125.085938 6.59375 123.527344 6.59375 C 122.59375 6.59375 121.527344 6.800781 120.328125 7.214844 Z M 138.378906 16.679688 C 137.773438 17.71875 137.304688 18.789062 136.980469 19.886719 C 136.667969 20.972656 136.511719 22.019531 136.511719 23.027344 C 136.511719 24.023438 136.734375 24.867188 137.179688 25.566406 C 137.625 26.265625 138.261719 26.613281 139.09375 26.613281 C 140.25 26.613281 141.335938 25.976562 142.359375 24.699219 C 143.367188 23.40625 144.144531 21.855469 144.695312 20.042969 C 145.257812 18.21875 145.539062 16.53125 145.539062 14.988281 C 145.539062 13.445312 145.472656 12.175781 145.339844 11.179688 C 145.84375 11.136719 146.15625 11.113281 146.273438 11.113281 C 148.035156 11.113281 148.917969 12.019531 148.917969 13.828125 C 148.917969 14.214844 148.675781 15.820312 148.183594 18.640625 C 147.679688 21.460938 147.429688 23.71875 147.429688 25.410156 C 147.429688 27.101562 147.746094 28.601562 148.386719 29.910156 C 147.082031 29.640625 146.132812 29.0625 145.539062 28.171875 C 144.945312 27.296875 144.648438 26.027344 144.648438 24.363281 C 144.648438 24.066406 144.695312 23.503906 144.785156 22.671875 C 144.21875 24.644531 143.234375 26.234375 141.828125 27.4375 C 140.417969 28.65625 139.03125 29.261719 137.667969 29.261719 C 136.304688 29.261719 135.207031 28.742188 134.378906 27.703125 C 133.546875 26.679688 133.132812 25.261719 133.132812 23.449219 C 133.132812 21.625 133.472656 19.84375 134.15625 18.105469 C 134.824219 16.367188 135.839844 14.871094 137.203125 13.605469 C 138.566406 12.332031 140.085938 11.691406 141.761719 11.691406 C 142.484375 11.691406 143.285156 11.839844 144.160156 12.136719 C 142.929688 12.449219 141.8125 13.019531 140.804688 13.851562 C 139.78125 14.683594 138.972656 15.625 138.378906 16.679688 Z M 168.152344 15.320312 C 168.152344 16.273438 167.949219 17.957031 167.550781 20.378906 C 167.148438 22.796875 166.949219 24.566406 166.949219 25.679688 C 166.949219 26.777344 167.082031 27.570312 167.351562 28.0625 C 167.617188 28.550781 168.078125 28.964844 168.726562 29.308594 C 168.445312 29.335938 168.0625 29.351562 167.574219 29.351562 C 166.164062 29.351562 165.164062 29.085938 164.570312 28.550781 C 163.976562 28.015625 163.679688 27.066406 163.679688 25.699219 C 163.679688 24.929688 163.890625 23.375 164.304688 21.046875 C 164.71875 18.699219 164.925781 16.976562 164.925781 15.878906 C 164.925781 14.511719 164.511719 13.828125 163.679688 13.828125 C 162.347656 13.828125 160.96875 15.003906 159.546875 17.347656 C 158.125 19.695312 157.410156 22.523438 157.410156 25.832031 C 157.410156 27.140625 157.480469 28.15625 157.613281 28.886719 C 157.0625 28.929688 156.738281 28.953125 156.632812 28.953125 C 154.8125 28.953125 153.898438 28.054688 153.898438 26.257812 C 153.898438 25.839844 154.121094 24.246094 154.566406 21.46875 C 154.996094 18.675781 155.210938 16.457031 155.210938 14.808594 C 155.210938 13.148438 155.03125 11.625 154.675781 10.246094 C 155.90625 10.71875 156.765625 11.394531 157.257812 12.269531 C 157.746094 13.160156 157.988281 14.171875 157.988281 15.300781 C 157.988281 16.429688 157.863281 17.742188 157.613281 19.242188 C 158.292969 16.894531 159.367188 14.921875 160.835938 13.316406 C 162.289062 11.699219 163.652344 10.890625 164.925781 10.890625 C 167.074219 10.890625 168.152344 12.367188 168.152344 15.320312 Z M 183.070312 11.804688 C 183.070312 12.664062 182.90625 13.265625 182.578125 13.605469 C 182.238281 13.933594 181.75 14.097656 181.113281 14.097656 L 178.867188 14.097656 C 178.777344 14.648438 178.5625 15.9375 178.222656 17.972656 C 177.511719 21.832031 177.15625 24.75 177.15625 26.726562 C 177.15625 28.699219 177.304688 30.011719 177.597656 30.667969 C 176.414062 30.222656 175.570312 29.5625 175.066406 28.683594 C 174.574219 27.792969 174.332031 26.71875 174.332031 25.457031 C 174.332031 24.179688 174.40625 22.976562 174.554688 21.847656 C 174.714844 20.71875 174.9375 19.398438 175.21875 17.882812 C 175.515625 16.355469 175.722656 15.136719 175.84375 14.230469 C 174.65625 14.394531 173.492188 14.726562 172.351562 15.234375 C 172.324219 14.890625 172.308594 14.585938 172.308594 14.320312 C 172.308594 13.324219 172.632812 12.65625 173.285156 12.316406 C 173.953125 11.972656 174.910156 11.804688 176.152344 11.804688 C 176.300781 10.257812 176.375 9.109375 176.375 8.351562 C 176.375 7.59375 176.371094 6.984375 176.355469 6.523438 C 176.355469 6.066406 176.355469 5.722656 176.355469 5.5 C 177.304688 5.648438 178.035156 6.074219 178.554688 6.769531 C 179.074219 7.453125 179.332031 8.402344 179.332031 9.621094 C 179.332031 10.246094 179.28125 11 179.179688 11.890625 C 180.984375 11.890625 182.261719 11.589844 183.003906 10.980469 C 183.046875 11.277344 183.070312 11.550781 183.070312 11.804688 Z M 188.914062 19.242188 C 189.597656 16.894531 190.648438 14.921875 192.074219 13.316406 C 193.496094 11.699219 194.828125 10.890625 196.074219 10.890625 C 197.320312 10.890625 198.203125 11.269531 198.71875 12.027344 C 199.238281 12.785156 199.5 13.816406 199.5 15.121094 C 199.5 16.414062 199.296875 18.230469 198.898438 20.578125 C 198.5 22.9375 198.296875 24.652344 198.296875 25.722656 C 198.296875 26.792969 198.433594 27.570312 198.699219 28.0625 C 198.964844 28.550781 199.417969 28.964844 200.054688 29.308594 C 199.789062 29.335938 199.410156 29.351562 198.921875 29.351562 C 197.585938 29.351562 196.601562 29.078125 195.964844 28.527344 C 195.339844 27.980469 195.03125 27.035156 195.03125 25.699219 C 195.03125 24.929688 195.238281 23.375 195.652344 21.046875 C 196.066406 18.699219 196.273438 16.976562 196.273438 15.878906 C 196.273438 14.511719 195.792969 13.828125 194.828125 13.828125 C 194.265625 13.828125 193.644531 14.128906 192.960938 14.722656 C 192.28125 15.300781 191.621094 16.09375 190.984375 17.105469 C 190.359375 18.113281 189.835938 19.398438 189.40625 20.957031 C 188.976562 22.5 188.761719 24.023438 188.761719 25.523438 C 188.761719 27.035156 188.828125 28.15625 188.960938 28.886719 C 188.457031 28.929688 188.175781 28.953125 188.117188 28.953125 C 187.136719 28.953125 186.417969 28.742188 185.957031 28.328125 C 185.484375 27.914062 185.246094 27.257812 185.246094 26.367188 C 185.246094 25.492188 185.433594 23.792969 185.804688 21.269531 C 186.898438 13.53125 187.449219 7.660156 187.449219 3.652344 C 187.449219 1.839844 187.328125 0.625 187.09375 0 C 188.292969 0.445312 189.136719 1.089844 189.628906 1.9375 C 190.117188 2.796875 190.359375 3.972656 190.359375 5.457031 C 190.359375 6.496094 190.152344 8.679688 189.738281 12.003906 C 189.339844 15.328125 189.0625 17.742188 188.914062 19.242188 Z M 212.460938 12.515625 C 211.214844 12.515625 210.164062 13.230469 209.304688 14.652344 C 208.429688 16.09375 207.851562 17.78125 207.570312 19.710938 L 208.4375 19.710938 C 209.535156 19.710938 210.488281 19.554688 211.304688 19.242188 C 212.105469 18.929688 212.726562 18.527344 213.171875 18.039062 C 214.003906 17.074219 214.417969 15.992188 214.417969 14.789062 C 214.417969 14.105469 214.253906 13.554688 213.929688 13.140625 C 213.601562 12.722656 213.113281 12.515625 212.460938 12.515625 Z M 216.839844 25.144531 C 215.890625 26.703125 214.847656 27.792969 213.707031 28.417969 C 212.5625 29.039062 211.238281 29.351562 209.726562 29.351562 C 208.230469 29.351562 206.917969 28.683594 205.789062 27.347656 C 204.664062 26.027344 204.101562 24.15625 204.101562 21.734375 C 204.101562 18.988281 204.84375 16.539062 206.324219 14.386719 C 207.050781 13.347656 208 12.5 209.171875 11.847656 C 210.339844 11.210938 211.628906 10.890625 213.039062 10.890625 C 216.152344 10.890625 217.707031 12.398438 217.707031 15.410156 C 217.707031 17.222656 217.011719 18.640625 215.617188 19.664062 C 214.210938 20.6875 212.585938 21.203125 210.75 21.203125 C 209.519531 21.203125 208.414062 21.089844 207.4375 20.867188 C 207.421875 21.074219 207.414062 21.394531 207.414062 21.824219 C 207.414062 25.507812 208.503906 27.347656 210.683594 27.347656 C 212.726562 27.347656 214.394531 26.332031 215.683594 24.296875 C 216.457031 24.402344 216.839844 24.683594 216.839844 25.144531 Z M 216.21875 8.550781 C 216.203125 8.773438 216.09375 8.988281 215.882812 9.199219 C 215.691406 9.390625 215.46875 9.515625 215.21875 9.578125 C 214.476562 8.640625 213.519531 7.71875 212.347656 6.816406 C 211.179688 5.894531 209.984375 5.25 208.769531 4.878906 C 208.8125 3.792969 209.320312 2.941406 210.28125 2.316406 C 211.378906 2.746094 212.511719 3.609375 213.683594 4.898438 C 214.855469 6.175781 215.699219 7.394531 216.21875 8.550781 Z M 225.398438 18.75 C 226.140625 16.050781 227.039062 14.058594 228.089844 12.785156 C 229.144531 11.507812 230.121094 10.867188 231.023438 10.867188 C 231.929688 10.867188 232.605469 11.203125 233.046875 11.871094 C 233.507812 12.554688 233.738281 13.414062 233.738281 14.453125 C 233.738281 15.492188 233.472656 16.390625 232.9375 17.148438 C 232.390625 17.90625 231.597656 18.285156 230.558594 18.285156 C 230.230469 18.285156 229.972656 18.261719 229.78125 18.21875 C 230.492188 17.191406 230.847656 16.152344 230.847656 15.097656 C 230.847656 14.355469 230.542969 13.984375 229.9375 13.984375 C 229.460938 13.984375 228.957031 14.261719 228.425781 14.808594 C 227.875 15.375 227.355469 16.152344 226.867188 17.148438 C 226.363281 18.15625 225.949219 19.457031 225.621094 21.046875 C 225.28125 22.648438 225.109375 24.378906 225.109375 26.234375 C 225.109375 26.441406 225.164062 27.324219 225.265625 28.886719 C 224.734375 28.929688 224.421875 28.953125 224.332031 28.953125 C 222.511719 28.953125 221.597656 28.054688 221.597656 26.257812 C 221.597656 25.839844 221.820312 24.246094 222.265625 21.46875 C 222.695312 18.675781 222.910156 16.457031 222.910156 14.808594 C 222.910156 13.148438 222.730469 11.625 222.375 10.246094 C 223.605469 10.71875 224.464844 11.394531 224.957031 12.269531 C 225.445312 13.160156 225.6875 14.195312 225.6875 15.367188 C 225.6875 16.539062 225.59375 17.667969 225.398438 18.75 Z M 243.742188 12.515625 C 242.496094 12.515625 241.4375 13.230469 240.5625 14.652344 C 239.703125 16.09375 239.132812 17.78125 238.851562 19.710938 L 239.71875 19.710938 C 240.816406 19.710938 241.769531 19.554688 242.585938 19.242188 C 243.386719 18.929688 244.007812 18.527344 244.453125 18.039062 C 245.285156 17.074219 245.699219 15.992188 245.699219 14.789062 C 245.699219 14.105469 245.535156 13.554688 245.210938 13.140625 C 244.882812 12.722656 244.394531 12.515625 243.742188 12.515625 Z M 248.121094 25.144531 C 247.171875 26.703125 246.128906 27.792969 244.988281 28.417969 C 243.847656 29.039062 242.519531 29.351562 241.007812 29.351562 C 239.511719 29.351562 238.199219 28.683594 237.074219 27.347656 C 235.945312 26.027344 235.382812 24.15625 235.382812 21.734375 C 235.382812 18.988281 236.125 16.539062 237.605469 14.386719 C 238.332031 13.347656 239.28125 12.5 240.453125 11.847656 C 241.621094 11.210938 242.914062 10.890625 244.320312 10.890625 C 247.433594 10.890625 248.988281 12.398438 248.988281 15.410156 C 248.988281 17.222656 248.292969 18.640625 246.898438 19.664062 C 245.492188 20.6875 243.867188 21.203125 242.03125 21.203125 C 240.800781 21.203125 239.695312 21.089844 238.71875 20.867188 C 238.703125 21.074219 238.695312 21.394531 238.695312 21.824219 C 238.695312 25.507812 239.785156 27.347656 241.964844 27.347656 C 244.007812 27.347656 245.675781 26.332031 246.964844 24.296875 C 247.738281 24.402344 248.121094 24.683594 248.121094 25.144531 Z M 248.121094 25.144531 "/>
<path style=" stroke:none;fill-rule:nonzero;fill:rgb(11.372549%,11.372549%,10.588235%);fill-opacity:1;" d="M 24.941406 20.980469 L 24.941406 20.9375 C 24.46875 20.105469 23.6875 19.5 22.765625 19.253906 L 22.679688 19.253906 C 22.175781 19.101562 21.660156 19.003906 21.136719 18.964844 C 19.71875 18.773438 18.363281 18.273438 17.164062 17.492188 C 16.953125 17.367188 16.683594 17.425781 16.542969 17.628906 C 16.40625 17.832031 16.453125 18.109375 16.648438 18.257812 C 17.042969 18.515625 17.457031 18.746094 17.882812 18.945312 C 17.882812 19.007812 17.828125 19.070312 17.808594 19.136719 C 17.242188 21.128906 18.386719 23.203125 20.371094 23.78125 C 20.726562 23.886719 21.097656 23.9375 21.46875 23.9375 C 22.601562 23.945312 23.671875 23.421875 24.367188 22.527344 C 24.417969 23.148438 24.382812 23.773438 24.253906 24.382812 C 24.207031 24.503906 24.207031 24.636719 24.265625 24.757812 C 24.320312 24.875 24.421875 24.960938 24.542969 25 C 24.59375 25.007812 24.644531 25.007812 24.691406 25 C 24.890625 25 25.066406 24.875 25.132812 24.6875 C 25.328125 23.855469 25.378906 22.996094 25.273438 22.148438 C 25.242188 21.742188 25.128906 21.34375 24.941406 20.980469 Z M 22.179688 20.058594 C 22.203125 20.164062 22.203125 20.273438 22.179688 20.382812 C 22.058594 20.8125 21.609375 21.066406 21.179688 20.945312 C 20.75 20.824219 20.496094 20.375 20.617188 19.941406 C 20.632812 19.90625 20.652344 19.871094 20.671875 19.835938 L 21.042969 19.878906 C 21.429688 19.910156 21.816406 19.96875 22.191406 20.066406 Z M 22.761719 22.6875 C 22.097656 23.03125 21.328125 23.101562 20.613281 22.886719 C 19.109375 22.453125 18.242188 20.882812 18.671875 19.378906 L 18.671875 19.304688 C 19.015625 19.4375 19.367188 19.550781 19.722656 19.644531 L 19.722656 19.683594 C 19.523438 20.308594 19.695312 20.996094 20.171875 21.453125 C 20.644531 21.910156 21.335938 22.058594 21.953125 21.835938 C 22.574219 21.613281 23.011719 21.058594 23.085938 20.40625 C 23.457031 20.59375 23.773438 20.875 24 21.222656 C 23.789062 21.847656 23.351562 22.371094 22.773438 22.6875 Z M 39.492188 19.125 C 39.492188 19.058594 39.445312 19 39.417969 18.933594 C 39.847656 18.730469 40.257812 18.503906 40.65625 18.246094 C 40.851562 18.097656 40.894531 17.820312 40.757812 17.617188 C 40.621094 17.414062 40.347656 17.351562 40.136719 17.480469 C 38.9375 18.257812 37.582031 18.761719 36.164062 18.953125 C 35.636719 18.992188 35.117188 19.089844 34.609375 19.242188 L 34.535156 19.242188 C 33.609375 19.488281 32.820312 20.101562 32.351562 20.9375 L 32.351562 20.96875 C 32.15625 21.34375 32.042969 21.753906 32.015625 22.175781 C 31.914062 23.023438 31.960938 23.878906 32.160156 24.710938 C 32.222656 24.898438 32.398438 25.027344 32.597656 25.027344 C 32.75 25.027344 32.890625 24.957031 32.980469 24.832031 C 33.070312 24.710938 33.09375 24.550781 33.042969 24.40625 C 32.910156 23.796875 32.871094 23.171875 32.925781 22.550781 C 33.617188 23.445312 34.6875 23.96875 35.820312 23.960938 C 36.191406 23.960938 36.5625 23.910156 36.917969 23.808594 C 37.882812 23.53125 38.695312 22.882812 39.179688 22.003906 C 39.664062 21.125 39.777344 20.089844 39.492188 19.125 Z M 36.222656 19.878906 L 36.59375 19.835938 C 36.613281 19.871094 36.632812 19.90625 36.648438 19.941406 C 36.765625 20.367188 36.519531 20.808594 36.097656 20.929688 C 35.839844 21.011719 35.558594 20.953125 35.351562 20.773438 C 35.148438 20.597656 35.050781 20.328125 35.089844 20.058594 C 35.464844 19.96875 35.84375 19.90625 36.226562 19.878906 Z M 36.671875 22.886719 C 35.957031 23.101562 35.1875 23.03125 34.523438 22.6875 C 33.941406 22.371094 33.5 21.84375 33.289062 21.214844 C 33.515625 20.871094 33.832031 20.589844 34.203125 20.40625 C 34.210938 20.484375 34.226562 20.558594 34.246094 20.632812 C 34.464844 21.371094 35.140625 21.875 35.90625 21.871094 C 36.4375 21.859375 36.929688 21.605469 37.25 21.183594 C 37.570312 20.761719 37.675781 20.214844 37.542969 19.699219 L 37.542969 19.664062 C 37.898438 19.570312 38.25 19.457031 38.59375 19.324219 L 38.59375 19.398438 C 39.011719 20.890625 38.15625 22.445312 36.671875 22.886719 Z M 36.671875 22.886719 "/>
<path style=" stroke:none;fill-rule:nonzero;fill:rgb(11.372549%,11.372549%,10.588235%);fill-opacity:1;" d="M 26.378906 20.25 C 26.28125 18.859375 25.144531 17.976562 23.199219 17.828125 C 22.171875 17.691406 21.183594 17.335938 20.308594 16.78125 C 20.09375 16.640625 19.808594 16.699219 19.667969 16.910156 C 19.523438 17.125 19.582031 17.414062 19.796875 17.554688 C 20.804688 18.199219 21.945312 18.605469 23.128906 18.746094 C 23.964844 18.808594 25.371094 19.101562 25.457031 20.3125 C 25.476562 20.558594 25.675781 20.746094 25.921875 20.746094 L 25.953125 20.746094 C 26.207031 20.726562 26.394531 20.503906 26.378906 20.25 Z M 34.394531 18.746094 C 35.582031 18.605469 36.71875 18.199219 37.726562 17.554688 C 37.941406 17.414062 38 17.125 37.859375 16.910156 C 37.714844 16.699219 37.429688 16.640625 37.214844 16.78125 C 36.339844 17.34375 35.351562 17.707031 34.320312 17.84375 C 32.398438 17.992188 31.230469 18.878906 31.140625 20.269531 C 31.132812 20.394531 31.171875 20.515625 31.253906 20.605469 C 31.335938 20.699219 31.449219 20.757812 31.570312 20.765625 L 31.601562 20.765625 C 31.847656 20.765625 32.050781 20.574219 32.066406 20.332031 C 32.152344 19.082031 33.585938 18.816406 34.394531 18.746094 Z M 19.160156 15.527344 C 19.261719 15.660156 19.429688 15.726562 19.597656 15.699219 C 19.765625 15.675781 19.902344 15.558594 19.960938 15.402344 C 20.019531 15.242188 19.988281 15.066406 19.875 14.9375 L 17.90625 12.511719 C 17.804688 12.378906 17.636719 12.3125 17.46875 12.339844 C 17.304688 12.363281 17.164062 12.476562 17.105469 12.636719 C 17.046875 12.796875 17.078125 12.972656 17.191406 13.101562 Z M 21.234375 14.183594 C 21.304688 14.363281 21.476562 14.480469 21.667969 14.480469 C 21.816406 14.480469 21.957031 14.40625 22.042969 14.28125 C 22.128906 14.160156 22.148438 14.003906 22.097656 13.863281 L 21.230469 11.585938 C 21.136719 11.347656 20.867188 11.226562 20.628906 11.320312 C 20.390625 11.410156 20.273438 11.679688 20.363281 11.917969 Z M 23.703125 14.25 C 23.945312 14.253906 24.148438 14.066406 24.167969 13.824219 L 24.324219 11.859375 C 24.332031 11.734375 24.292969 11.613281 24.214844 11.519531 C 24.132812 11.425781 24.019531 11.367188 23.894531 11.355469 C 23.773438 11.34375 23.648438 11.382812 23.554688 11.464844 C 23.460938 11.542969 23.402344 11.660156 23.394531 11.785156 L 23.242188 13.757812 C 23.234375 13.886719 23.277344 14.011719 23.367188 14.105469 C 23.453125 14.199219 23.578125 14.25 23.703125 14.25 Z M 23.703125 14.25 "/>
<path style=" stroke:none;fill-rule:nonzero;fill:rgb(11.372549%,11.372549%,10.588235%);fill-opacity:1;" d="M 56.621094 30.214844 C 54.214844 29.449219 48.546875 29.515625 43.941406 29.726562 C 47.027344 25.824219 47.027344 22.050781 46.476562 20.277344 C 46.058594 18.945312 45.410156 15.59375 46.238281 14.289062 C 46.390625 14.023438 46.660156 13.847656 46.964844 13.8125 C 48.050781 13.667969 48.25 12.539062 48.402344 11.636719 C 48.445312 11.3125 48.519531 10.992188 48.621094 10.683594 C 48.808594 10.347656 49.0625 10.058594 49.375 9.835938 C 50.238281 9.144531 50.914062 8.242188 51.335938 7.21875 C 52.320312 4.800781 51.003906 3.605469 50.949219 3.558594 C 50.898438 3.519531 50.839844 3.492188 50.777344 3.476562 L 50.6875 3.476562 C 49.679688 3.210938 48.605469 3.375 47.71875 3.929688 C 47.300781 4.132812 46.78125 4.378906 46.015625 4.703125 C 44.367188 5.53125 42.371094 5.203125 41.074219 3.882812 C 38.296875 1.210938 36.339844 0.441406 28.675781 0.441406 C 21.011719 0.441406 19.078125 1.21875 16.324219 3.882812 C 15.03125 5.203125 13.035156 5.53125 11.386719 4.703125 C 10.8125 4.460938 10.242188 4.203125 9.683594 3.929688 C 8.796875 3.375 7.722656 3.210938 6.710938 3.476562 L 6.625 3.476562 C 6.5625 3.492188 6.503906 3.519531 6.453125 3.558594 C 6.398438 3.605469 5.082031 4.792969 6.0625 7.21875 C 6.488281 8.242188 7.160156 9.144531 8.027344 9.835938 C 8.335938 10.058594 8.59375 10.347656 8.78125 10.683594 C 8.847656 11.003906 8.882812 11.332031 8.886719 11.660156 C 9.039062 12.570312 9.230469 13.695312 10.324219 13.835938 C 10.628906 13.871094 10.898438 14.046875 11.054688 14.3125 C 11.878906 15.617188 11.230469 18.96875 10.8125 20.300781 C 10.25 22.074219 10.273438 25.867188 13.351562 29.75 C 8.742188 29.542969 3.074219 29.472656 0.667969 30.242188 C 0.421875 30.320312 0.289062 30.582031 0.367188 30.824219 C 0.445312 31.070312 0.707031 31.203125 0.949219 31.125 C 3.476562 30.320312 10.214844 30.507812 14.027344 30.714844 L 14.183594 30.714844 L 14.585938 31.144531 C 9.84375 31.210938 6.625 31.539062 5.015625 32.121094 C 4.855469 32.171875 4.734375 32.308594 4.703125 32.476562 C 4.671875 32.640625 4.734375 32.8125 4.863281 32.917969 C 4.992188 33.027344 5.171875 33.054688 5.328125 32.992188 C 6.921875 32.417969 10.453125 32.097656 15.554688 32.058594 C 15.769531 32.246094 15.992188 32.421875 16.214844 32.601562 C 12.21875 32.824219 5.71875 33.351562 3.246094 34.457031 C 3.035156 34.574219 2.945312 34.832031 3.042969 35.054688 C 3.136719 35.277344 3.390625 35.386719 3.617188 35.304688 C 6.191406 34.175781 13.609375 33.671875 17.339844 33.480469 L 17.957031 33.925781 L 18.019531 33.96875 C 14.132812 34.347656 11.480469 34.835938 10.121094 35.429688 C 9.90625 35.542969 9.816406 35.804688 9.914062 36.023438 C 10.011719 36.246094 10.261719 36.355469 10.492188 36.277344 C 11.769531 35.714844 14.472656 35.230469 18.34375 34.867188 C 18.328125 36.011719 18.46875 37.152344 18.765625 38.257812 C 19.773438 40.929688 21.148438 41.585938 22.753906 41.71875 C 22.984375 42.15625 23.304688 42.535156 23.691406 42.839844 C 22.828125 43.625 22.121094 44.5625 21.597656 45.605469 C 21.507812 45.84375 21.625 46.113281 21.863281 46.203125 C 22.105469 46.296875 22.371094 46.175781 22.464844 45.9375 C 22.628906 45.503906 23.128906 44.703125 24.496094 43.347656 C 24.890625 43.546875 25.304688 43.710938 25.730469 43.828125 C 25.429688 44.503906 25.238281 45.21875 25.164062 45.949219 C 25.15625 46.074219 25.199219 46.195312 25.28125 46.285156 C 25.363281 46.378906 25.476562 46.433594 25.601562 46.441406 C 25.847656 46.441406 26.050781 46.246094 26.0625 46 C 26.144531 45.320312 26.335938 44.660156 26.625 44.039062 C 27.960938 44.261719 29.328125 44.261719 30.664062 44.039062 C 30.953125 44.660156 31.144531 45.320312 31.226562 46 C 31.238281 46.246094 31.441406 46.441406 31.6875 46.441406 C 31.8125 46.433594 31.925781 46.378906 32.007812 46.285156 C 32.089844 46.195312 32.132812 46.074219 32.128906 45.949219 C 32.058594 45.21875 31.871094 44.5 31.578125 43.824219 C 32.003906 43.703125 32.417969 43.542969 32.8125 43.339844 C 34.175781 44.695312 34.664062 45.5 34.84375 45.933594 C 34.9375 46.171875 35.203125 46.289062 35.441406 46.199219 C 35.683594 46.105469 35.800781 45.835938 35.707031 45.597656 C 35.1875 44.554688 34.480469 43.617188 33.617188 42.832031 C 34.003906 42.53125 34.324219 42.148438 34.554688 41.714844 C 36.160156 41.578125 37.535156 40.929688 38.535156 38.257812 C 38.824219 37.15625 38.960938 36.023438 38.9375 34.886719 C 42.808594 35.25 45.519531 35.734375 46.792969 36.296875 C 46.945312 36.378906 47.132812 36.367188 47.273438 36.265625 C 47.417969 36.167969 47.492188 35.996094 47.46875 35.824219 C 47.445312 35.652344 47.328125 35.503906 47.164062 35.449219 C 45.792969 34.828125 43.085938 34.351562 39.136719 33.976562 L 39.628906 33.628906 L 39.820312 33.492188 C 43.527344 33.679688 51.058594 34.179688 53.664062 35.347656 C 53.894531 35.429688 54.144531 35.320312 54.242188 35.097656 C 54.339844 34.875 54.25 34.617188 54.035156 34.5 C 51.527344 33.402344 45.015625 32.882812 41.023438 32.644531 C 41.261719 32.46875 41.488281 32.289062 41.710938 32.101562 C 46.824219 32.132812 50.355469 32.453125 51.953125 33.035156 C 52.191406 33.113281 52.449219 32.988281 52.535156 32.753906 C 52.621094 32.515625 52.503906 32.257812 52.269531 32.164062 C 50.664062 31.582031 47.445312 31.253906 42.699219 31.1875 L 43.101562 30.761719 L 43.253906 30.761719 C 47.050781 30.566406 53.808594 30.363281 56.332031 31.167969 C 56.59375 31.25 56.875 31.101562 56.953125 30.835938 C 57.035156 30.574219 56.886719 30.296875 56.621094 30.214844 Z M 30.6875 41.910156 C 30.5625 41.691406 30.277344 41.613281 30.054688 41.742188 C 29.835938 41.871094 29.757812 42.152344 29.886719 42.375 C 29.984375 42.542969 30.125 42.808594 30.28125 43.117188 C 29.210938 43.273438 28.125 43.273438 27.058594 43.117188 C 27.273438 42.679688 27.445312 42.382812 27.453125 42.375 C 27.582031 42.152344 27.503906 41.871094 27.285156 41.742188 C 27.0625 41.613281 26.777344 41.691406 26.648438 41.910156 C 26.648438 41.949219 26.390625 42.363281 26.113281 42.9375 C 25.269531 42.757812 24.5 42.324219 23.902344 41.703125 L 25.402344 41.703125 C 26.757812 41.695312 28 40.953125 28.644531 39.757812 C 29.296875 40.957031 30.550781 41.699219 31.910156 41.695312 L 33.410156 41.695312 C 32.816406 42.320312 32.042969 42.75 31.203125 42.933594 C 30.921875 42.375 30.6875 41.96875 30.664062 41.925781 Z M 41.246094 31.234375 L 41.199219 31.273438 C 40.679688 31.707031 40.105469 32.125 39.542969 32.511719 L 39.0625 32.511719 C 39.140625 31.453125 39.339844 30.5 39.722656 30.214844 C 39.925781 30.054688 39.964844 29.757812 39.804688 29.554688 C 39.640625 29.347656 39.347656 29.3125 39.140625 29.472656 C 38.523438 29.988281 38.253906 31.105469 38.136719 32.460938 L 37.757812 32.460938 C 37.636719 32.453125 37.515625 32.5 37.425781 32.582031 C 37.335938 32.667969 37.285156 32.789062 37.285156 32.914062 C 37.277344 33.167969 37.476562 33.382812 37.734375 33.386719 L 38.078125 33.386719 L 38.078125 33.847656 L 37.96875 33.847656 C 37.714844 33.828125 37.496094 34.015625 37.46875 34.265625 C 37.445312 34.519531 37.636719 34.746094 37.886719 34.769531 L 38.019531 34.769531 C 38.035156 35.820312 37.917969 36.871094 37.671875 37.890625 C 36.800781 40.210938 35.757812 40.699219 34.246094 40.773438 L 31.910156 40.773438 C 30.382812 40.769531 29.140625 39.542969 29.113281 38.015625 C 29.328125 37.8125 29.570312 37.636719 29.832031 37.496094 C 30.449219 37.101562 31.355469 36.554688 31.023438 35.769531 C 30.90625 35.496094 30.984375 35.367188 32.046875 34.644531 L 32.4375 34.378906 C 32.898438 34.128906 33.199219 33.664062 33.238281 33.140625 C 33.210938 32.738281 32.992188 32.371094 32.652344 32.152344 C 32.441406 32.023438 32.171875 32.082031 32.035156 32.289062 C 31.914062 32.496094 31.96875 32.765625 32.164062 32.90625 C 32.214844 32.941406 32.324219 33.046875 32.332031 33.136719 C 32.335938 33.222656 32.226562 33.386719 31.921875 33.597656 L 31.539062 33.863281 C 30.535156 34.546875 29.742188 35.101562 30.183594 36.074219 C 30.132812 36.226562 29.632812 36.53125 29.359375 36.691406 C 29.117188 36.835938 28.886719 36.992188 28.664062 37.167969 C 28.441406 36.992188 28.207031 36.835938 27.964844 36.691406 C 27.671875 36.53125 27.394531 36.335938 27.144531 36.117188 C 27.582031 35.082031 26.785156 34.546875 25.785156 33.859375 L 25.402344 33.59375 C 25.105469 33.382812 24.996094 33.214844 24.996094 33.128906 C 24.996094 33.042969 25.105469 32.9375 25.15625 32.898438 C 25.355469 32.753906 25.40625 32.480469 25.273438 32.273438 C 25.140625 32.066406 24.871094 32 24.65625 32.121094 C 24.316406 32.339844 24.097656 32.707031 24.070312 33.109375 C 24.109375 33.632812 24.410156 34.097656 24.871094 34.347656 L 25.261719 34.613281 C 26.328125 35.335938 26.402344 35.46875 26.285156 35.738281 C 25.953125 36.53125 26.835938 37.070312 27.476562 37.464844 C 27.726562 37.605469 27.964844 37.765625 28.195312 37.941406 C 28.1875 39.488281 26.933594 40.738281 25.390625 40.738281 L 24.425781 40.738281 C 22.128906 40.792969 20.722656 40.824219 19.625 37.855469 C 19.375 36.832031 19.261719 35.78125 19.277344 34.730469 L 19.40625 34.730469 C 19.664062 34.707031 19.851562 34.484375 19.832031 34.226562 C 19.808594 33.96875 19.582031 33.78125 19.328125 33.804688 L 19.242188 33.804688 L 19.242188 33.34375 L 19.585938 33.34375 C 19.84375 33.34375 20.050781 33.136719 20.050781 32.882812 C 20.050781 32.625 19.84375 32.417969 19.585938 32.417969 L 19.210938 32.417969 C 19.09375 31.0625 18.851562 29.945312 18.203125 29.429688 C 17.988281 29.253906 17.667969 29.289062 17.492188 29.503906 C 17.316406 29.722656 17.351562 30.039062 17.566406 30.214844 C 17.949219 30.519531 18.128906 31.453125 18.222656 32.511719 L 17.636719 32.511719 C 17.109375 32.113281 16.585938 31.699219 16.105469 31.273438 C 16.078125 31.238281 16.046875 31.210938 16.011719 31.1875 C 15.851562 31.042969 15.691406 30.902344 15.542969 30.761719 L 16.980469 30.851562 L 17.019531 30.851562 C 17.273438 30.863281 17.488281 30.664062 17.5 30.40625 C 17.507812 30.152344 17.308594 29.933594 17.054688 29.925781 C 17.054688 29.925781 16.085938 29.851562 14.585938 29.769531 C 11.226562 25.941406 11.140625 22.222656 11.671875 20.542969 C 11.671875 20.492188 13.109375 15.828125 11.8125 13.78125 C 11.515625 13.296875 11.015625 12.972656 10.453125 12.898438 C 10.070312 12.847656 9.949219 12.277344 9.835938 11.480469 C 9.785156 11.09375 9.691406 10.710938 9.566406 10.34375 C 9.332031 9.867188 8.984375 9.453125 8.558594 9.136719 C 7.800781 8.542969 7.207031 7.757812 6.839844 6.867188 C 6.222656 5.40625 6.699219 4.601562 6.902344 4.34375 C 7.355469 4.304688 7.804688 4.421875 8.179688 4.675781 C 8.226562 4.714844 12.824219 8.089844 14.84375 8.089844 L 15.058594 8.089844 C 13.207031 9.421875 12.121094 11.121094 12.121094 12.785156 C 12.121094 13.042969 12.328125 13.25 12.585938 13.25 C 12.839844 13.25 13.046875 13.042969 13.046875 12.785156 C 13.046875 11.046875 14.652344 9.140625 17.140625 7.921875 C 18.109375 7.777344 19.046875 7.46875 19.90625 7.003906 C 20.054688 6.921875 20.148438 6.769531 20.152344 6.601562 C 20.15625 6.433594 20.070312 6.277344 19.925781 6.191406 C 19.78125 6.105469 19.601562 6.105469 19.457031 6.191406 C 18.007812 6.90625 16.402344 7.242188 14.789062 7.167969 C 14.015625 7.167969 12.539062 6.421875 11.171875 5.59375 C 13.121094 6.46875 15.410156 6.042969 16.914062 4.523438 C 19.382812 2.160156 20.921875 1.335938 28.644531 1.335938 C 36.371094 1.335938 37.90625 2.164062 40.378906 4.523438 C 41.316406 5.480469 42.597656 6.027344 43.941406 6.039062 C 44.667969 6.027344 45.386719 5.882812 46.0625 5.617188 C 44.699219 6.4375 43.222656 7.179688 42.457031 7.179688 C 40.84375 7.257812 39.238281 6.917969 37.789062 6.203125 C 37.566406 6.085938 37.289062 6.167969 37.167969 6.386719 C 37.046875 6.609375 37.121094 6.886719 37.339844 7.015625 C 38.207031 7.484375 39.148438 7.800781 40.125 7.949219 C 42.59375 9.1875 44.21875 11.042969 44.21875 12.808594 C 44.21875 13.066406 44.425781 13.273438 44.679688 13.273438 C 44.9375 13.273438 45.144531 13.066406 45.144531 12.808594 C 45.144531 11.140625 44.050781 9.4375 42.203125 8.117188 L 42.476562 8.117188 C 44.496094 8.117188 49.097656 4.738281 49.140625 4.703125 C 49.511719 4.445312 49.960938 4.328125 50.410156 4.367188 C 50.613281 4.632812 51.058594 5.4375 50.472656 6.890625 C 50.105469 7.785156 49.515625 8.566406 48.757812 9.160156 C 48.328125 9.476562 47.984375 9.890625 47.75 10.367188 C 47.621094 10.734375 47.53125 11.117188 47.476562 11.503906 C 47.335938 12.328125 47.21875 12.871094 46.859375 12.921875 C 46.285156 12.992188 45.773438 13.320312 45.472656 13.816406 C 44.167969 15.867188 45.59375 20.535156 45.613281 20.578125 C 46.152344 22.265625 46.058594 25.984375 42.699219 29.808594 C 41.222656 29.886719 40.230469 29.960938 40.230469 29.960938 C 39.972656 29.972656 39.773438 30.1875 39.785156 30.445312 C 39.792969 30.699219 40.011719 30.898438 40.265625 30.890625 L 40.304688 30.890625 L 41.742188 30.796875 C 41.613281 30.9375 41.421875 31.085938 41.246094 31.234375 Z M 41.246094 31.234375 "/>
<path style=" stroke:none;fill-rule:nonzero;fill:rgb(11.372549%,11.372549%,10.588235%);fill-opacity:1;" d="M 37.765625 15.699219 C 37.90625 15.699219 38.035156 15.632812 38.125 15.527344 L 40.09375 13.101562 C 40.203125 12.972656 40.234375 12.796875 40.179688 12.636719 C 40.121094 12.476562 39.980469 12.363281 39.8125 12.339844 C 39.648438 12.3125 39.480469 12.378906 39.375 12.511719 L 37.40625 14.9375 C 37.296875 15.078125 37.273438 15.265625 37.347656 15.429688 C 37.425781 15.589844 37.585938 15.691406 37.765625 15.691406 Z M 35.480469 14.449219 C 35.535156 14.460938 35.59375 14.460938 35.648438 14.449219 C 35.839844 14.449219 36.011719 14.332031 36.078125 14.152344 L 36.949219 11.875 C 37.042969 11.636719 36.921875 11.367188 36.683594 11.277344 C 36.445312 11.183594 36.175781 11.304688 36.085938 11.542969 L 35.214844 13.816406 C 35.160156 13.9375 35.160156 14.074219 35.207031 14.191406 C 35.257812 14.3125 35.359375 14.40625 35.480469 14.449219 Z M 33.585938 14.257812 C 33.707031 14.246094 33.820312 14.191406 33.902344 14.097656 C 33.980469 14 34.019531 13.878906 34.011719 13.757812 L 33.855469 11.785156 C 33.835938 11.527344 33.613281 11.335938 33.355469 11.355469 C 33.101562 11.378906 32.910156 11.601562 32.929688 11.859375 L 33.085938 13.832031 C 33.09375 13.953125 33.152344 14.066406 33.246094 14.148438 C 33.339844 14.226562 33.460938 14.269531 33.585938 14.257812 Z M 33.585938 14.257812 "/>
<path style=" stroke:none;fill-rule:nonzero;fill:rgb(11.372549%,11.372549%,10.588235%);fill-opacity:1;" d="M 21.964844 35.683594 C 21.964844 36.042969 21.671875 36.332031 21.316406 36.332031 C 20.957031 36.332031 20.667969 36.042969 20.667969 35.683594 C 20.667969 35.324219 20.957031 35.035156 21.316406 35.035156 C 21.671875 35.035156 21.964844 35.324219 21.964844 35.683594 Z M 21.964844 35.683594 "/>
<path style=" stroke:none;fill-rule:nonzero;fill:rgb(11.372549%,11.372549%,10.588235%);fill-opacity:1;" d="M 22.179688 37.890625 C 22.179688 38.25 21.890625 38.539062 21.53125 38.539062 C 21.171875 38.539062 20.882812 38.25 20.882812 37.890625 C 20.882812 37.53125 21.171875 37.242188 21.53125 37.242188 C 21.890625 37.242188 22.179688 37.53125 22.179688 37.890625 Z M 22.179688 37.890625 "/>
<path style=" stroke:none;fill-rule:nonzero;fill:rgb(11.372549%,11.372549%,10.588235%);fill-opacity:1;" d="M 23.871094 39.34375 C 23.871094 39.703125 23.582031 39.996094 23.222656 39.996094 C 22.867188 39.996094 22.574219 39.703125 22.574219 39.34375 C 22.574219 38.988281 22.867188 38.695312 23.222656 38.695312 C 23.582031 38.695312 23.871094 38.988281 23.871094 39.34375 Z M 23.871094 39.34375 "/>
<path style=" stroke:none;fill-rule:nonzero;fill:rgb(11.372549%,11.372549%,10.588235%);fill-opacity:1;" d="M 24.441406 37.085938 C 24.441406 37.445312 24.148438 37.738281 23.792969 37.738281 C 23.433594 37.738281 23.144531 37.445312 23.144531 37.085938 C 23.144531 36.730469 23.433594 36.4375 23.792969 36.4375 C 24.148438 36.4375 24.441406 36.730469 24.441406 37.085938 Z M 24.441406 37.085938 "/>
<path style=" stroke:none;fill-rule:nonzero;fill:rgb(11.372549%,11.372549%,10.588235%);fill-opacity:1;" d="M 26.242188 38.226562 C 26.242188 38.585938 25.953125 38.875 25.59375 38.875 C 25.238281 38.875 24.945312 38.585938 24.945312 38.226562 C 24.945312 37.867188 25.238281 37.574219 25.59375 37.574219 C 25.953125 37.574219 26.242188 37.867188 26.242188 38.226562 Z M 26.242188 38.226562 "/>
<path style=" stroke:none;fill-rule:nonzero;fill:rgb(11.372549%,11.372549%,10.588235%);fill-opacity:1;" d="M 36.621094 35.683594 C 36.621094 36.042969 36.332031 36.332031 35.972656 36.332031 C 35.617188 36.332031 35.324219 36.042969 35.324219 35.683594 C 35.324219 35.324219 35.617188 35.035156 35.972656 35.035156 C 36.332031 35.035156 36.621094 35.324219 36.621094 35.683594 Z M 36.621094 35.683594 "/>
<path style=" stroke:none;fill-rule:nonzero;fill:rgb(11.372549%,11.372549%,10.588235%);fill-opacity:1;" d="M 36.40625 37.890625 C 36.40625 38.25 36.117188 38.539062 35.757812 38.539062 C 35.398438 38.539062 35.109375 38.25 35.109375 37.890625 C 35.109375 37.53125 35.398438 37.242188 35.757812 37.242188 C 36.117188 37.242188 36.40625 37.53125 36.40625 37.890625 Z M 36.40625 37.890625 "/>
<path style=" stroke:none;fill-rule:nonzero;fill:rgb(11.372549%,11.372549%,10.588235%);fill-opacity:1;" d="M 34.714844 39.34375 C 34.714844 39.703125 34.425781 39.996094 34.066406 39.996094 C 33.707031 39.996094 33.417969 39.703125 33.417969 39.34375 C 33.417969 38.988281 33.707031 38.695312 34.066406 38.695312 C 34.425781 38.695312 34.714844 38.988281 34.714844 39.34375 Z M 34.714844 39.34375 "/>
<path style=" stroke:none;fill-rule:nonzero;fill:rgb(11.372549%,11.372549%,10.588235%);fill-opacity:1;" d="M 34.148438 37.085938 C 34.148438 37.445312 33.855469 37.738281 33.5 37.738281 C 33.140625 37.738281 32.851562 37.445312 32.851562 37.085938 C 32.851562 36.730469 33.140625 36.4375 33.5 36.4375 C 33.855469 36.4375 34.148438 36.730469 34.148438 37.085938 Z M 34.148438 37.085938 "/>
<path style=" stroke:none;fill-rule:nonzero;fill:rgb(11.372549%,11.372549%,10.588235%);fill-opacity:1;" d="M 32.34375 38.226562 C 32.34375 38.585938 32.054688 38.875 31.695312 38.875 C 31.335938 38.875 31.046875 38.585938 31.046875 38.226562 C 31.046875 37.867188 31.335938 37.574219 31.695312 37.574219 C 32.054688 37.574219 32.34375 37.867188 32.34375 38.226562 Z M 32.34375 38.226562 "/>
<path style=" stroke:none;fill-rule:nonzero;fill:rgb(11.372549%,11.372549%,10.588235%);fill-opacity:1;" d="M 30.84375 24.957031 C 30.71875 24.949219 30.597656 24.988281 30.503906 25.066406 C 30.410156 25.148438 30.351562 25.261719 30.34375 25.386719 C 30.167969 26.65625 29.570312 27.832031 28.644531 28.71875 C 27.722656 27.828125 27.128906 26.652344 26.960938 25.378906 C 26.9375 25.121094 26.714844 24.929688 26.457031 24.953125 C 26.203125 24.972656 26.011719 25.195312 26.03125 25.453125 C 26.257812 27.101562 27.078125 28.613281 28.335938 29.695312 C 28.417969 29.761719 28.519531 29.800781 28.625 29.800781 C 28.730469 29.800781 28.835938 29.761719 28.917969 29.695312 C 30.175781 28.613281 30.996094 27.101562 31.21875 25.453125 C 31.238281 25.214844 31.078125 25 30.84375 24.957031 Z M 22.699219 26.628906 C 22.480469 26.507812 22.210938 26.582031 22.082031 26.796875 C 21.957031 27.011719 21.796875 27.242188 21.628906 27.480469 C 20.804688 28.679688 19.554688 30.5 21.316406 32.429688 C 21.492188 32.578125 21.753906 32.574219 21.925781 32.417969 C 22.097656 32.261719 22.125 32.003906 21.996094 31.8125 C 20.828125 30.542969 21.421875 29.449219 22.390625 28.039062 C 22.570312 27.773438 22.742188 27.523438 22.878906 27.289062 C 22.949219 27.179688 22.96875 27.046875 22.933594 26.917969 C 22.898438 26.792969 22.8125 26.6875 22.699219 26.628906 Z M 35.246094 26.796875 C 35.117188 26.574219 34.835938 26.496094 34.613281 26.625 C 34.390625 26.753906 34.316406 27.035156 34.441406 27.257812 C 34.578125 27.492188 34.75 27.742188 34.929688 28.007812 C 35.898438 29.417969 36.492188 30.511719 35.324219 31.78125 C 35.1875 31.898438 35.128906 32.082031 35.175781 32.257812 C 35.222656 32.429688 35.367188 32.5625 35.546875 32.59375 C 35.722656 32.625 35.902344 32.546875 36.003906 32.398438 C 37.765625 30.488281 36.519531 28.6875 35.691406 27.449219 C 35.535156 27.242188 35.375 27.011719 35.246094 26.796875 Z M 23.636719 32.691406 C 23.714844 32.445312 23.582031 32.183594 23.335938 32.105469 C 23.09375 32.027344 22.832031 32.160156 22.753906 32.40625 C 22.398438 33.554688 22.890625 34.792969 23.933594 35.386719 C 24.15625 35.515625 24.4375 35.4375 24.566406 35.214844 C 24.695312 34.996094 24.617188 34.710938 24.398438 34.582031 C 23.730469 34.210938 23.414062 33.421875 23.636719 32.691406 Z M 33.351562 35.367188 C 34.394531 34.777344 34.886719 33.535156 34.53125 32.386719 C 34.449219 32.140625 34.191406 32.007812 33.945312 32.085938 C 33.703125 32.164062 33.566406 32.425781 33.644531 32.671875 C 33.859375 33.398438 33.546875 34.175781 32.886719 34.546875 C 32.664062 34.671875 32.589844 34.957031 32.71875 35.179688 C 32.84375 35.402344 33.128906 35.476562 33.351562 35.347656 Z M 30.421875 32.78125 C 29.972656 33.296875 29.324219 33.59375 28.640625 33.59375 C 27.957031 33.59375 27.308594 33.296875 26.859375 32.78125 C 26.691406 32.585938 26.390625 32.5625 26.195312 32.734375 C 25.996094 32.902344 25.972656 33.203125 26.144531 33.402344 C 26.769531 34.128906 27.679688 34.550781 28.636719 34.550781 C 29.597656 34.550781 30.507812 34.128906 31.132812 33.402344 C 31.304688 33.203125 31.28125 32.902344 31.082031 32.734375 C 30.886719 32.5625 30.585938 32.585938 30.417969 32.78125 Z M 16.609375 23.734375 C 16.464844 23.636719 16.277344 23.628906 16.125 23.714844 C 15.972656 23.804688 15.882812 23.96875 15.890625 24.140625 C 15.898438 24.316406 16.007812 24.472656 16.164062 24.542969 C 17.789062 25.441406 18.492188 26.765625 18.492188 27.242188 C 18.492188 27.496094 18.699219 27.703125 18.957031 27.703125 C 19.210938 27.703125 19.417969 27.496094 19.417969 27.242188 C 19.417969 26.28125 18.371094 24.703125 16.609375 23.734375 Z M 41.359375 23.917969 C 41.238281 23.699219 40.964844 23.617188 40.742188 23.734375 C 38.96875 24.703125 37.90625 26.28125 37.90625 27.246094 C 37.90625 27.503906 38.113281 27.710938 38.371094 27.710938 C 38.625 27.710938 38.832031 27.503906 38.832031 27.246094 C 38.832031 26.769531 39.539062 25.441406 41.160156 24.550781 C 41.273438 24.492188 41.355469 24.394531 41.390625 24.277344 C 41.429688 24.15625 41.417969 24.027344 41.359375 23.917969 Z M 41.359375 23.917969 "/>
<path style=" stroke:none;fill-rule:nonzero;fill:rgb(0%,0%,0%);fill-opacity:1;" d="M 70.476562 35.25 L 69.914062 33.832031 L 67.757812 33.832031 L 67.195312 35.25 L 66.835938 35.25 L 68.632812 30.734375 L 69.039062 30.734375 L 70.839844 35.25 Z M 67.882812 33.519531 L 69.789062 33.519531 L 69.003906 31.550781 L 68.839844 31.070312 L 68.835938 31.070312 L 68.667969 31.535156 Z M 76.710938 33.042969 L 78.566406 33.042969 L 78.566406 35.25 L 78.292969 35.25 L 78.277344 34.460938 C 78.152344 34.738281 77.960938 34.949219 77.703125 35.097656 C 77.4375 35.246094 77.113281 35.316406 76.726562 35.316406 C 76.316406 35.316406 75.957031 35.222656 75.652344 35.035156 C 75.34375 34.84375 75.105469 34.574219 74.941406 34.222656 C 74.773438 33.871094 74.691406 33.460938 74.691406 32.992188 C 74.691406 32.523438 74.777344 32.113281 74.949219 31.761719 C 75.121094 31.410156 75.359375 31.140625 75.667969 30.949219 C 75.976562 30.761719 76.335938 30.667969 76.746094 30.667969 C 77.207031 30.667969 77.582031 30.757812 77.871094 30.941406 C 78.164062 31.121094 78.382812 31.402344 78.53125 31.777344 L 78.214844 31.9375 C 78.109375 31.625 77.933594 31.386719 77.6875 31.222656 C 77.441406 31.0625 77.125 30.980469 76.746094 30.980469 C 76.410156 30.980469 76.113281 31.0625 75.859375 31.222656 C 75.605469 31.386719 75.40625 31.621094 75.269531 31.921875 C 75.125 32.226562 75.054688 32.582031 75.054688 32.992188 C 75.054688 33.617188 75.203125 34.109375 75.503906 34.46875 C 75.800781 34.824219 76.214844 35.003906 76.742188 35.003906 C 77.070312 35.003906 77.347656 34.941406 77.574219 34.808594 C 77.800781 34.679688 77.96875 34.507812 78.078125 34.296875 C 78.1875 34.085938 78.242188 33.855469 78.242188 33.613281 L 78.242188 33.363281 L 76.710938 33.363281 Z M 83.53125 34.9375 L 86.375 34.9375 L 86.375 35.25 L 83.1875 35.25 L 83.1875 30.734375 L 86.265625 30.734375 L 86.265625 31.046875 L 83.53125 31.046875 L 83.53125 32.792969 L 85.691406 32.792969 L 85.691406 33.113281 L 83.53125 33.113281 Z M 94.242188 30.734375 L 94.242188 35.25 L 93.816406 35.25 L 91.425781 31.707031 L 91.09375 31.105469 L 91.085938 31.105469 L 91.109375 31.671875 L 91.109375 35.25 L 90.777344 35.25 L 90.777344 30.734375 L 91.210938 30.734375 L 93.59375 34.273438 L 93.933594 34.878906 L 93.917969 34.3125 L 93.917969 30.734375 Z M 102.640625 34.105469 C 102.511719 34.492188 102.292969 34.789062 101.976562 35 C 101.660156 35.210938 101.28125 35.316406 100.839844 35.316406 C 100.429688 35.316406 100.070312 35.222656 99.757812 35.035156 C 99.449219 34.84375 99.210938 34.574219 99.039062 34.222656 C 98.875 33.871094 98.792969 33.460938 98.792969 32.992188 C 98.792969 32.523438 98.875 32.113281 99.039062 31.761719 C 99.210938 31.410156 99.449219 31.140625 99.757812 30.949219 C 100.070312 30.761719 100.425781 30.667969 100.832031 30.667969 C 101.730469 30.667969 102.316406 31.039062 102.582031 31.78125 L 102.246094 31.9375 C 102.140625 31.617188 101.972656 31.378906 101.742188 31.21875 C 101.511719 31.058594 101.214844 30.980469 100.851562 30.980469 C 100.515625 30.980469 100.21875 31.0625 99.960938 31.222656 C 99.707031 31.386719 99.503906 31.621094 99.363281 31.921875 C 99.222656 32.226562 99.152344 32.582031 99.152344 32.992188 C 99.152344 33.402344 99.222656 33.757812 99.363281 34.0625 C 99.5 34.363281 99.695312 34.597656 99.949219 34.761719 C 100.203125 34.921875 100.5 35.003906 100.839844 35.003906 C 101.203125 35.003906 101.511719 34.914062 101.765625 34.738281 C 102.019531 34.558594 102.199219 34.304688 102.300781 33.980469 Z M 107.402344 34.9375 L 110.25 34.9375 L 110.25 35.25 L 107.058594 35.25 L 107.058594 30.734375 L 110.136719 30.734375 L 110.136719 31.046875 L 107.402344 31.046875 L 107.402344 32.792969 L 109.566406 32.792969 L 109.566406 33.113281 L 107.402344 33.113281 Z M 121.625 30.734375 C 122.34375 30.734375 122.894531 30.925781 123.285156 31.308594 C 123.675781 31.6875 123.871094 32.238281 123.871094 32.957031 C 123.871094 33.699219 123.675781 34.265625 123.285156 34.660156 C 122.894531 35.050781 122.34375 35.25 121.625 35.25 L 120.203125 35.25 L 120.203125 30.734375 Z M 121.652344 34.9375 C 122.253906 34.9375 122.714844 34.765625 123.03125 34.421875 C 123.355469 34.085938 123.515625 33.597656 123.515625 32.957031 C 123.515625 32.347656 123.355469 31.875 123.03125 31.546875 C 122.714844 31.214844 122.253906 31.046875 121.652344 31.046875 L 120.546875 31.046875 L 120.546875 34.9375 Z M 128.769531 34.9375 L 131.613281 34.9375 L 131.613281 35.25 L 128.425781 35.25 L 128.425781 30.734375 L 131.503906 30.734375 L 131.503906 31.046875 L 128.769531 31.046875 L 128.769531 32.792969 L 130.929688 32.792969 L 130.929688 33.113281 L 128.769531 33.113281 Z M 143.800781 32.082031 L 142.894531 35.25 L 142.46875 35.25 L 141.066406 30.734375 L 141.433594 30.734375 L 142.683594 34.972656 L 143.863281 30.734375 L 144.257812 30.734375 L 145.441406 34.976562 L 146.703125 30.734375 L 147.054688 30.734375 L 145.644531 35.25 L 145.226562 35.25 L 144.3125 32.082031 L 144.0625 31.105469 L 144.054688 31.105469 Z M 151.722656 34.9375 L 154.570312 34.9375 L 154.570312 35.25 L 151.378906 35.25 L 151.378906 30.734375 L 154.464844 30.734375 L 154.464844 31.046875 L 151.722656 31.046875 L 151.722656 32.792969 L 153.886719 32.792969 L 153.886719 33.113281 L 151.722656 33.113281 Z M 158.976562 35.25 L 158.976562 30.734375 L 160.566406 30.734375 C 161.058594 30.734375 161.429688 30.835938 161.671875 31.042969 C 161.914062 31.25 162.03125 31.542969 162.03125 31.933594 C 162.03125 32.195312 161.960938 32.417969 161.816406 32.601562 C 161.675781 32.785156 161.472656 32.902344 161.207031 32.957031 L 161.207031 32.964844 C 161.5 33.007812 161.730469 33.128906 161.902344 33.320312 C 162.074219 33.511719 162.160156 33.75 162.160156 34.03125 C 162.160156 34.421875 162.023438 34.71875 161.746094 34.933594 C 161.46875 35.144531 161.074219 35.25 160.566406 35.25 Z M 159.316406 32.816406 L 160.574219 32.816406 C 161.304688 32.816406 161.671875 32.523438 161.671875 31.933594 C 161.671875 31.34375 161.304688 31.046875 160.574219 31.046875 L 159.316406 31.046875 Z M 159.316406 34.9375 L 160.632812 34.9375 C 161.015625 34.9375 161.304688 34.859375 161.5 34.703125 C 161.695312 34.546875 161.792969 34.324219 161.792969 34.03125 C 161.792969 33.738281 161.695312 33.511719 161.5 33.359375 C 161.304688 33.207031 161.015625 33.128906 160.632812 33.128906 L 159.316406 33.128906 Z M 173.675781 30.734375 C 174.398438 30.734375 174.953125 30.925781 175.339844 31.308594 C 175.730469 31.6875 175.925781 32.238281 175.925781 32.957031 C 175.925781 33.699219 175.730469 34.265625 175.339844 34.660156 C 174.953125 35.050781 174.398438 35.25 173.675781 35.25 L 172.257812 35.25 L 172.257812 30.734375 Z M 173.703125 34.9375 C 174.304688 34.9375 174.769531 34.765625 175.089844 34.421875 C 175.410156 34.085938 175.566406 33.597656 175.566406 32.957031 C 175.566406 32.347656 175.410156 31.875 175.089844 31.546875 C 174.769531 31.214844 174.304688 31.046875 173.703125 31.046875 L 172.597656 31.046875 L 172.597656 34.9375 Z M 180.820312 34.9375 L 183.667969 34.9375 L 183.667969 35.25 L 180.480469 35.25 L 180.480469 30.734375 L 183.558594 30.734375 L 183.558594 31.046875 L 180.820312 31.046875 L 180.820312 32.792969 L 182.988281 32.792969 L 182.988281 33.113281 L 180.820312 33.113281 Z M 189.464844 30.667969 C 190.3125 30.667969 190.878906 31 191.164062 31.664062 L 190.875 31.902344 C 190.757812 31.582031 190.589844 31.347656 190.359375 31.199219 C 190.136719 31.050781 189.839844 30.980469 189.472656 30.980469 C 189.207031 30.980469 188.976562 31.023438 188.78125 31.105469 C 188.585938 31.1875 188.4375 31.296875 188.335938 31.4375 C 188.234375 31.582031 188.179688 31.742188 188.179688 31.917969 C 188.179688 32.089844 188.226562 32.234375 188.3125 32.347656 C 188.398438 32.460938 188.542969 32.558594 188.75 32.640625 C 188.960938 32.71875 189.246094 32.789062 189.609375 32.855469 C 190.195312 32.957031 190.613281 33.101562 190.859375 33.296875 C 191.101562 33.484375 191.222656 33.746094 191.222656 34.085938 C 191.222656 34.328125 191.15625 34.542969 191.015625 34.730469 C 190.875 34.917969 190.675781 35.0625 190.417969 35.160156 C 190.160156 35.265625 189.863281 35.316406 189.53125 35.316406 C 189.058594 35.316406 188.664062 35.222656 188.335938 35.035156 C 188.007812 34.84375 187.785156 34.582031 187.667969 34.238281 L 187.972656 34.003906 C 188.0625 34.328125 188.246094 34.578125 188.515625 34.746094 C 188.792969 34.917969 189.136719 35.003906 189.542969 35.003906 C 189.933594 35.003906 190.25 34.925781 190.496094 34.765625 C 190.75 34.605469 190.875 34.386719 190.875 34.105469 C 190.875 33.863281 190.769531 33.675781 190.566406 33.535156 C 190.363281 33.390625 190.011719 33.277344 189.511719 33.191406 C 189.089844 33.117188 188.753906 33.027344 188.507812 32.925781 C 188.265625 32.820312 188.089844 32.6875 187.980469 32.53125 C 187.875 32.378906 187.820312 32.1875 187.820312 31.953125 C 187.820312 31.71875 187.886719 31.507812 188.019531 31.3125 C 188.152344 31.113281 188.34375 30.957031 188.59375 30.84375 C 188.84375 30.726562 189.132812 30.667969 189.464844 30.667969 Z M 196.054688 30.734375 L 196.054688 35.25 L 195.710938 35.25 L 195.710938 30.734375 Z M 202.625 33.042969 L 204.472656 33.042969 L 204.472656 35.25 L 204.199219 35.25 L 204.1875 34.460938 C 204.066406 34.738281 203.871094 34.949219 203.609375 35.097656 C 203.347656 35.246094 203.023438 35.316406 202.636719 35.316406 C 202.226562 35.316406 201.867188 35.222656 201.558594 35.035156 C 201.253906 34.84375 201.019531 34.574219 200.851562 34.222656 C 200.6875 33.871094 200.605469 33.460938 200.605469 32.992188 C 200.605469 32.523438 200.6875 32.113281 200.859375 31.761719 C 201.03125 31.410156 201.269531 31.140625 201.578125 30.949219 C 201.886719 30.761719 202.246094 30.667969 202.65625 30.667969 C 203.117188 30.667969 203.492188 30.757812 203.785156 30.941406 C 204.078125 31.121094 204.292969 31.402344 204.4375 31.777344 L 204.125 31.9375 C 204.019531 31.625 203.847656 31.386719 203.597656 31.222656 C 203.347656 31.0625 203.035156 30.980469 202.65625 30.980469 C 202.320312 30.980469 202.023438 31.0625 201.769531 31.222656 C 201.515625 31.386719 201.316406 31.621094 201.175781 31.921875 C 201.035156 32.226562 200.964844 32.582031 200.964844 32.992188 C 200.964844 33.617188 201.113281 34.109375 201.414062 34.46875 C 201.710938 34.824219 202.121094 35.003906 202.652344 35.003906 C 202.976562 35.003906 203.253906 34.941406 203.480469 34.808594 C 203.710938 34.679688 203.878906 34.507812 203.988281 34.296875 C 204.097656 34.085938 204.15625 33.855469 204.15625 33.613281 L 204.15625 33.363281 L 202.625 33.363281 Z M 212.558594 30.734375 L 212.558594 35.25 L 212.132812 35.25 L 209.746094 31.707031 L 209.414062 31.105469 L 209.402344 31.105469 L 209.421875 31.671875 L 209.421875 35.25 L 209.09375 35.25 L 209.09375 30.734375 L 209.523438 30.734375 L 211.910156 34.273438 L 212.25 34.878906 L 212.238281 34.3125 L 212.238281 30.734375 Z M 212.558594 30.734375 "/>
</g>
</svg>
